<?xml version="1.0" standalone="no"?>
<!DOCTYPE svg PUBLIC "-//W3C//DTD SVG 20010904//EN"
 "http://www.w3.org/TR/2001/REC-SVG-20010904/DTD/svg10.dtd">
<svg version="1.0" xmlns="http://www.w3.org/2000/svg"
 width="225.000000pt" height="225.000000pt" viewBox="0 0 225.000000 225.000000"
 preserveAspectRatio="xMidYMid meet">
<metadata>
Created by potrace 1.11, written by Peter Selinger 2001-2013
</metadata>
<g transform="translate(0.000000,225.000000) scale(0.100000,-0.100000)"
fill="#000000" stroke="none">
<path d="M0 1125 l0 -1125 1125 0 1125 0 0 1125 0 1125 -1125 0 -1125 0 0
-1125z m1288 825 c34 -13 41 -25 20 -34 -7 -3 -1 -3 14 0 20 5 30 2 34 -11 4
-9 13 -14 22 -10 20 8 42 -13 42 -41 0 -14 8 -25 21 -29 31 -10 59 -37 59 -56
0 -23 24 -41 44 -33 12 5 16 0 16 -19 0 -14 5 -27 12 -29 10 -4 9 -14 -1 -46
-18 -53 -20 -130 -4 -140 10 -6 16 -72 7 -72 -16 0 -34 16 -34 31 0 21 -15 25
-25 8 -11 -16 -51 -28 -74 -22 -11 3 -18 9 -16 14 3 4 12 6 20 2 8 -3 15 0 15
6 0 10 -32 17 -55 11 -13 -3 -52 -6 -112 -8 -27 -1 -54 -6 -62 -11 -16 -10
-18 -46 -7 -103 6 -33 11 -38 34 -38 19 0 42 14 73 43 71 67 209 101 209 51 0
-10 8 -14 26 -12 17 2 29 -3 32 -12 4 -12 2 -13 -9 -3 -11 9 -19 7 -38 -8 -13
-10 -18 -19 -12 -19 6 0 11 -7 11 -14 0 -13 -4 -13 -35 0 -50 20 -54 17 -17
-12 39 -31 42 -47 5 -29 -50 23 -144 27 -182 8 -47 -24 -48 -38 -3 -39 41 -1
104 -24 85 -31 -6 -2 -29 0 -49 6 -21 6 -40 9 -42 7 -2 -3 18 -26 45 -52 26
-26 47 -52 46 -56 -2 -4 6 -8 16 -8 11 0 21 -5 23 -11 6 -17 108 -1 108 16 0
10 5 11 23 2 32 -15 31 -56 -2 -92 -15 -16 -44 -56 -65 -87 -20 -32 -43 -58
-50 -58 -15 0 -36 -42 -36 -70 0 -11 -6 -20 -14 -20 -8 0 -16 -10 -18 -22 -2
-17 -10 -23 -30 -23 -15 -1 -30 -4 -34 -8 -4 -4 -13 -2 -21 5 -7 6 -17 8 -20
4 -4 -4 -1 -11 7 -16 13 -8 13 -10 -1 -10 -8 0 -34 14 -57 31 -24 17 -46 28
-50 24 -4 -4 -1 -10 6 -12 6 -3 12 -9 12 -15 0 -11 -58 -1 -76 13 -5 4 -20 6
-32 2 -12 -3 -47 -2 -78 2 -42 5 -54 10 -50 21 5 12 1 12 -29 0 -41 -17 -81
-21 -116 -12 -28 8 -33 20 -46 109 -3 21 -11 41 -19 44 -8 3 -14 14 -14 24 0
11 -7 31 -16 44 -15 23 -15 25 2 26 11 0 14 3 7 6 -7 2 -13 10 -13 17 0 7 -13
37 -28 67 -23 43 -28 64 -24 101 3 42 7 48 34 57 44 15 45 15 52 -23 4 -22 14
-37 26 -41 11 -4 27 -14 36 -22 15 -15 20 -15 70 2 53 18 104 54 104 74 0 6
-24 8 -57 5 -49 -4 -54 -3 -33 7 14 6 46 9 73 6 41 -3 47 -2 47 14 0 11 8 20
18 21 9 0 22 2 29 2 24 2 29 15 37 96 3 28 -1 39 -21 53 -13 10 -34 20 -46 21
-12 1 -36 10 -54 19 -43 23 -65 21 -92 -7 l-22 -23 31 -13 c63 -26 107 -80 65
-80 -8 0 -12 -6 -9 -13 4 -11 -7 -12 -58 -5 -35 5 -74 6 -88 3 -24 -5 -24 -5
-6 10 11 8 23 15 28 15 4 0 8 5 8 10 0 6 -13 8 -30 5 -17 -3 -30 -1 -30 5 0 5
6 10 13 11 10 0 10 2 0 6 -7 2 -13 11 -13 19 0 17 -31 19 -48 2 -9 -9 -12 -9
-12 0 0 7 5 12 10 12 6 0 10 7 10 15 0 8 8 15 18 15 9 0 24 5 32 10 11 7 2 8
-27 4 -24 -4 -43 -4 -43 -1 0 12 46 54 83 76 35 21 38 27 35 57 -2 18 1 35 7
38 6 2 11 23 12 47 2 31 8 49 23 61 11 9 20 19 20 22 0 16 47 57 84 73 43 18
50 20 79 22 9 0 17 7 17 15 0 26 143 30 208 6z m-233 -10 c-3 -5 -12 -7 -20
-3 -21 7 -19 13 6 13 11 0 18 -4 14 -10z m410 -90 c-3 -5 -10 -10 -16 -10 -5
0 -9 5 -9 10 0 6 7 10 16 10 8 0 12 -4 9 -10z m35 -10 c0 -5 -4 -10 -10 -10
-5 0 -10 5 -10 10 0 6 5 10 10 10 6 0 10 -4 10 -10z m257 -786 c-3 -3 -12 -4
-19 -1 -8 3 -5 6 6 6 11 1 17 -2 13 -5z m-1308 -49 c0 -5 -6 -1 -14 9 -8 11
-15 24 -15 30 0 5 7 1 15 -10 8 -10 14 -23 14 -29z m1271 -119 c0 -17 -30 -50
-38 -42 -5 6 25 56 33 56 3 0 5 -6 5 -14z m-693 -166 c25 -11 65 -20 88 -20
50 0 107 -18 102 -33 -6 -18 -118 -48 -154 -41 -32 6 -92 33 -116 52 -7 5 -23
13 -35 17 -21 6 -23 4 -17 -14 11 -36 -20 -24 -42 16 -15 26 -17 47 -5 39 4
-2 14 -1 22 4 22 14 106 3 157 -20z m652 -416 c22 -9 43 -24 46 -35 9 -27 -30
-136 -59 -164 -24 -24 -103 -73 -121 -77 -11 -1 -23 -7 -27 -13 -4 -5 -8 6 -8
25 0 26 3 31 10 20 9 -13 10 -13 10 0 0 9 -6 22 -12 29 -11 10 -10 14 5 22 9
6 17 19 17 29 0 12 7 20 18 21 15 0 15 1 -2 8 -12 5 -16 10 -9 14 6 4 10 15 8
25 -1 9 0 11 2 5 9 -25 25 -13 19 13 -9 33 27 65 64 58 25 -4 25 -4 3 7 -23
12 -31 29 -13 29 5 0 28 -7 49 -16z"/>
<path d="M1370 1870 c0 -5 5 -10 10 -10 6 0 10 5 10 10 0 6 -4 10 -10 10 -5 0
-10 -4 -10 -10z"/>
<path d="M997 1068 c-44 -12 -52 -25 -43 -73 7 -37 29 -54 81 -65 17 -3 34
-15 40 -27 7 -17 21 -24 62 -29 74 -9 143 3 143 24 0 9 7 26 15 36 8 11 15 35
15 52 0 29 -5 35 -42 52 -24 10 -77 22 -118 25 -41 4 -84 9 -95 11 -11 2 -37
0 -58 -6z"/>
</g>
</svg>
